<svg width="1280" height="378" viewBox="0 0 1280 378" fill="none" xmlns="http://www.w3.org/2000/svg">
<path d="M-64 121.5C-31.1667 217 71.2707 365.016 226.5 376.5C422.5 391 562.5 153.5 665 216.5C798.64 298.64 845.488 110.688 966 162C1094 216.5 1388 93.5 1300.5 53" stroke="#E0E7FF"/>
<path d="M-64 96.5C-31.1667 192 76 346 226.5 351.5C420.937 358.606 515.5 144 665 191.5C814.5 239 836 121 966 137C1096 153 1300.5 148 1300.5 28" stroke="#E0E7FF"/>
<path d="M-64 68.5C-31.1667 164 161.5 345.5 240 330.5C420.311 296.046 590.138 64.006 711 164C780.5 221.5 840.412 71.8035 966 109C1123 155.5 1300.5 120 1300.5 0" stroke="#E0E7FF"/>
</svg>
