<svg width="491" height="93" viewBox="0 0 491 93" fill="none" xmlns="http://www.w3.org/2000/svg">
<path d="M39.8209 17.5896C39.8209 7.87512 47.696 0 57.4104 0V0C67.1249 0 75 7.87512 75 17.5896V59.6091H39.8209V17.5896Z" fill="#34A853"/>
<path d="M0 59.6091C0 48.0112 9.40202 38.5994 21 38.5994H37.3778V59.6091H0V59.6091Z" fill="#EA4336"/>
<path d="M75 62.5408L75 71.5896C75 83.1876 65.598 92.5896 54 92.5896L21 92.5896C9.40203 92.5896 6.72689e-06 83.1876 7.23386e-06 71.5896L7.62939e-06 62.5408L75 62.5408Z" fill="#2857FF"/>
<circle cx="17.8339" cy="17.8339" r="17.8339" fill="#FFD335"/>
<path d="M160.08 32.08L152.28 60H145.68L140.44 40.12L134.96 60L128.4 60.04L120.88 32.08H126.88L131.8 53.76L137.48 32.08H143.72L149.08 53.64L154.04 32.08H160.08ZM184.337 48.44C184.337 49.24 184.283 49.96 184.177 50.6H167.977C168.11 52.2 168.67 53.4533 169.657 54.36C170.643 55.2667 171.857 55.72 173.297 55.72C175.377 55.72 176.857 54.8267 177.737 53.04H183.777C183.137 55.1733 181.91 56.9333 180.097 58.32C178.283 59.68 176.057 60.36 173.417 60.36C171.283 60.36 169.363 59.8933 167.657 58.96C165.977 58 164.657 56.6533 163.697 54.92C162.763 53.1867 162.297 51.1867 162.297 48.92C162.297 46.6267 162.763 44.6133 163.697 42.88C164.63 41.1467 165.937 39.8133 167.617 38.88C169.297 37.9467 171.23 37.48 173.417 37.48C175.523 37.48 177.403 37.9333 179.057 38.84C180.737 39.7467 182.03 41.04 182.937 42.72C183.87 44.3733 184.337 46.28 184.337 48.44ZM178.537 46.84C178.51 45.4 177.99 44.2533 176.977 43.4C175.963 42.52 174.723 42.08 173.257 42.08C171.87 42.08 170.697 42.5067 169.737 43.36C168.803 44.1867 168.23 45.3467 168.017 46.84H178.537ZM203.555 41.08C204.275 40.0133 205.262 39.1467 206.515 38.48C207.795 37.8133 209.249 37.48 210.875 37.48C212.769 37.48 214.475 37.9467 215.995 38.88C217.542 39.8133 218.755 41.1467 219.635 42.88C220.542 44.5867 220.995 46.5733 220.995 48.84C220.995 51.1067 220.542 53.12 219.635 54.88C218.755 56.6133 217.542 57.96 215.995 58.92C214.475 59.88 212.769 60.36 210.875 60.36C209.222 60.36 207.769 60.04 206.515 59.4C205.289 58.7333 204.302 57.88 203.555 56.84V60H197.955V30.4H203.555V41.08ZM215.275 48.84C215.275 47.5067 214.995 46.36 214.435 45.4C213.902 44.4133 213.182 43.6667 212.275 43.16C211.395 42.6533 210.435 42.4 209.395 42.4C208.382 42.4 207.422 42.6667 206.515 43.2C205.635 43.7067 204.915 44.4533 204.355 45.44C203.822 46.4267 203.555 47.5867 203.555 48.92C203.555 50.2533 203.822 51.4133 204.355 52.4C204.915 53.3867 205.635 54.1467 206.515 54.68C207.422 55.1867 208.382 55.44 209.395 55.44C210.435 55.44 211.395 55.1733 212.275 54.64C213.182 54.1067 213.902 53.3467 214.435 52.36C214.995 51.3733 215.275 50.2 215.275 48.84ZM245.985 37.84V60H240.345V57.2C239.625 58.16 238.678 58.92 237.505 59.48C236.358 60.0133 235.105 60.28 233.745 60.28C232.011 60.28 230.478 59.92 229.145 59.2C227.811 58.4533 226.758 57.3733 225.985 55.96C225.238 54.52 224.865 52.8133 224.865 50.84V37.84H230.465V50.04C230.465 51.8 230.905 53.16 231.785 54.12C232.665 55.0533 233.865 55.52 235.385 55.52C236.931 55.52 238.145 55.0533 239.025 54.12C239.905 53.16 240.345 51.8 240.345 50.04V37.84H245.985ZM254.35 35.2C253.363 35.2 252.537 34.8933 251.87 34.28C251.23 33.64 250.91 32.8533 250.91 31.92C250.91 30.9867 251.23 30.2133 251.87 29.6C252.537 28.96 253.363 28.64 254.35 28.64C255.337 28.64 256.15 28.96 256.79 29.6C257.457 30.2133 257.79 30.9867 257.79 31.92C257.79 32.8533 257.457 33.64 256.79 34.28C256.15 34.8933 255.337 35.2 254.35 35.2ZM257.11 37.84V60H251.51V37.84H257.11ZM268.243 30.4V60H262.643V30.4H268.243ZM272.336 48.84C272.336 46.6 272.776 44.6133 273.656 42.88C274.562 41.1467 275.789 39.8133 277.336 38.88C278.882 37.9467 280.602 37.48 282.496 37.48C283.936 37.48 285.309 37.8 286.616 38.44C287.922 39.0533 288.962 39.88 289.736 40.92V30.4H295.416V60H289.736V56.72C289.042 57.8133 288.069 58.6933 286.816 59.36C285.562 60.0267 284.109 60.36 282.456 60.36C280.589 60.36 278.882 59.88 277.336 58.92C275.789 57.96 274.562 56.6133 273.656 54.88C272.776 53.12 272.336 51.1067 272.336 48.84ZM289.776 48.92C289.776 47.56 289.509 46.4 288.976 45.44C288.442 44.4533 287.722 43.7067 286.816 43.2C285.909 42.6667 284.936 42.4 283.896 42.4C282.856 42.4 281.896 42.6533 281.016 43.16C280.136 43.6667 279.416 44.4133 278.856 45.4C278.322 46.36 278.056 47.5067 278.056 48.84C278.056 50.1733 278.322 51.3467 278.856 52.36C279.416 53.3467 280.136 54.1067 281.016 54.64C281.922 55.1733 282.882 55.44 283.896 55.44C284.936 55.44 285.909 55.1867 286.816 54.68C287.722 54.1467 288.442 53.4 288.976 52.44C289.509 51.4533 289.776 50.28 289.776 48.92ZM329.416 32.08V36.6H321.976V60H316.376V36.6H308.936V32.08H329.416ZM343.342 60.36C341.209 60.36 339.289 59.8933 337.582 58.96C335.876 58 334.529 56.6533 333.542 54.92C332.582 53.1867 332.102 51.1867 332.102 48.92C332.102 46.6533 332.596 44.6533 333.582 42.92C334.596 41.1867 335.969 39.8533 337.702 38.92C339.436 37.96 341.369 37.48 343.502 37.48C345.636 37.48 347.569 37.96 349.302 38.92C351.036 39.8533 352.396 41.1867 353.382 42.92C354.396 44.6533 354.902 46.6533 354.902 48.92C354.902 51.1867 354.382 53.1867 353.342 54.92C352.329 56.6533 350.942 58 349.182 58.96C347.449 59.8933 345.502 60.36 343.342 60.36ZM343.342 55.48C344.356 55.48 345.302 55.24 346.182 54.76C347.089 54.2533 347.809 53.5067 348.342 52.52C348.876 51.5333 349.142 50.3333 349.142 48.92C349.142 46.8133 348.582 45.2 347.462 44.08C346.369 42.9333 345.022 42.36 343.422 42.36C341.822 42.36 340.476 42.9333 339.382 44.08C338.316 45.2 337.782 46.8133 337.782 48.92C337.782 51.0267 338.302 52.6533 339.342 53.8C340.409 54.92 341.742 55.48 343.342 55.48ZM367.69 37.48C369.343 37.48 370.797 37.8133 372.05 38.48C373.303 39.12 374.29 39.96 375.01 41V37.84H380.65V60.16C380.65 62.2133 380.237 64.04 379.41 65.64C378.583 67.2667 377.343 68.5467 375.69 69.48C374.037 70.44 372.037 70.92 369.69 70.92C366.543 70.92 363.957 70.1867 361.93 68.72C359.93 67.2533 358.797 65.2533 358.53 62.72H364.09C364.383 63.7333 365.01 64.5333 365.97 65.12C366.957 65.7333 368.143 66.04 369.53 66.04C371.157 66.04 372.477 65.5467 373.49 64.56C374.503 63.6 375.01 62.1333 375.01 60.16V56.72C374.29 57.76 373.29 58.6267 372.01 59.32C370.757 60.0133 369.317 60.36 367.69 60.36C365.823 60.36 364.117 59.88 362.57 58.92C361.023 57.96 359.797 56.6133 358.89 54.88C358.01 53.12 357.57 51.1067 357.57 48.84C357.57 46.6 358.01 44.6133 358.89 42.88C359.797 41.1467 361.01 39.8133 362.53 38.88C364.077 37.9467 365.797 37.48 367.69 37.48ZM375.01 48.92C375.01 47.56 374.743 46.4 374.21 45.44C373.677 44.4533 372.957 43.7067 372.05 43.2C371.143 42.6667 370.17 42.4 369.13 42.4C368.09 42.4 367.13 42.6533 366.25 43.16C365.37 43.6667 364.65 44.4133 364.09 45.4C363.557 46.36 363.29 47.5067 363.29 48.84C363.29 50.1733 363.557 51.3467 364.09 52.36C364.65 53.3467 365.37 54.1067 366.25 54.64C367.157 55.1733 368.117 55.44 369.13 55.44C370.17 55.44 371.143 55.1867 372.05 54.68C372.957 54.1467 373.677 53.4 374.21 52.44C374.743 51.4533 375.01 50.28 375.01 48.92ZM406.719 48.44C406.719 49.24 406.666 49.96 406.559 50.6H390.359C390.493 52.2 391.053 53.4533 392.039 54.36C393.026 55.2667 394.239 55.72 395.679 55.72C397.759 55.72 399.239 54.8267 400.119 53.04H406.159C405.519 55.1733 404.293 56.9333 402.479 58.32C400.666 59.68 398.439 60.36 395.799 60.36C393.666 60.36 391.746 59.8933 390.039 58.96C388.359 58 387.039 56.6533 386.079 54.92C385.146 53.1867 384.679 51.1867 384.679 48.92C384.679 46.6267 385.146 44.6133 386.079 42.88C387.013 41.1467 388.319 39.8133 389.999 38.88C391.679 37.9467 393.613 37.48 395.799 37.48C397.906 37.48 399.786 37.9333 401.439 38.84C403.119 39.7467 404.413 41.04 405.319 42.72C406.253 44.3733 406.719 46.28 406.719 48.44ZM400.919 46.84C400.893 45.4 400.373 44.2533 399.359 43.4C398.346 42.52 397.106 42.08 395.639 42.08C394.253 42.08 393.079 42.5067 392.119 43.36C391.186 44.1867 390.613 45.3467 390.399 46.84H400.919ZM417.327 42.44V53.16C417.327 53.9067 417.5 54.4533 417.847 54.8C418.22 55.12 418.834 55.28 419.687 55.28H422.287V60H418.767C414.047 60 411.687 57.7067 411.687 53.12V42.44H409.047V37.84H411.687V32.36H417.327V37.84H422.287V42.44H417.327ZM438.795 37.52C440.475 37.52 441.968 37.8933 443.275 38.64C444.581 39.36 445.595 40.44 446.315 41.88C447.061 43.2933 447.435 45 447.435 47V60H441.835V47.76C441.835 46 441.395 44.6533 440.515 43.72C439.635 42.76 438.435 42.28 436.915 42.28C435.368 42.28 434.141 42.76 433.235 43.72C432.355 44.6533 431.915 46 431.915 47.76V60H426.315V30.4H431.915V40.6C432.635 39.64 433.595 38.8933 434.795 38.36C435.995 37.8 437.328 37.52 438.795 37.52ZM473.36 48.44C473.36 49.24 473.307 49.96 473.2 50.6H457C457.133 52.2 457.693 53.4533 458.68 54.36C459.667 55.2667 460.88 55.72 462.32 55.72C464.4 55.72 465.88 54.8267 466.76 53.04H472.8C472.16 55.1733 470.933 56.9333 469.12 58.32C467.307 59.68 465.08 60.36 462.44 60.36C460.307 60.36 458.387 59.8933 456.68 58.96C455 58 453.68 56.6533 452.72 54.92C451.787 53.1867 451.32 51.1867 451.32 48.92C451.32 46.6267 451.787 44.6133 452.72 42.88C453.653 41.1467 454.96 39.8133 456.64 38.88C458.32 37.9467 460.253 37.48 462.44 37.48C464.547 37.48 466.427 37.9333 468.08 38.84C469.76 39.7467 471.053 41.04 471.96 42.72C472.893 44.3733 473.36 46.28 473.36 48.44ZM467.56 46.84C467.533 45.4 467.013 44.2533 466 43.4C464.987 42.52 463.747 42.08 462.28 42.08C460.893 42.08 459.72 42.5067 458.76 43.36C457.827 44.1867 457.253 45.3467 457.04 46.84H467.56ZM483.048 41.28C483.768 40.1067 484.701 39.1867 485.848 38.52C487.021 37.8533 488.354 37.52 489.848 37.52V43.4H488.368C486.608 43.4 485.274 43.8133 484.368 44.64C483.488 45.4667 483.048 46.9067 483.048 48.96V60H477.448V37.84H483.048V41.28Z" fill="#242137"/>
</svg>
