<svg width="75" height="93" viewBox="0 0 75 93" fill="none" xmlns="http://www.w3.org/2000/svg">
<path d="M39.8209 17.5896C39.8209 7.87512 47.696 0 57.4104 0V0C67.1249 0 75 7.87512 75 17.5896V59.6091H39.8209V17.5896Z" fill="#34A853"/>
<path d="M0 59.6091C0 48.0112 9.40202 38.5994 21 38.5994H37.3778V59.6091H0V59.6091Z" fill="#EA4336"/>
<path d="M75 62.5407L75 71.5896C75 83.1876 65.598 92.5896 54 92.5896L21 92.5896C9.40203 92.5896 6.72689e-06 83.1876 7.23386e-06 71.5896L7.62939e-06 62.5407L75 62.5407Z" fill="#2857FF"/>
<circle cx="17.8339" cy="17.8339" r="17.8339" fill="#FFD335"/>
</svg>
